<svg xmlns="http://www.w3.org/2000/svg" viewBox="0 0 80 80" width="480px" height="480px"><path fill="#f78f8f" d="M4.5 4.5H75.5V75.5H4.5z"/><path fill="#c74343" d="M75,5v70H5V5H75 M76,4H4v72h72V4L76,4z"/><path fill="#fff" d="M40.998 51.308c-2.856 3.522-6.917 5.307-12.07 5.307-9.165 0-16.62-7.454-16.62-16.615s7.455-16.615 16.62-16.615c3.732 0 7.325 1.245 10.239 3.528l-3.356 3.356c-2.007-1.421-4.413-2.194-6.882-2.194-6.578 0-11.928 5.35-11.928 11.925s5.35 11.925 11.928 11.925c5.178 0 9.328-3.031 10.827-7.909l.473-1.536H30.115v-4.427l14.594.022C45.198 41.835 44.28 47.265 40.998 51.308zM58 30H62V50H58z"/><path fill="#fff" d="M58 30H62V50H58z" transform="rotate(90 60 40)"/></svg>