<svg xmlns="http://www.w3.org/2000/svg" viewBox="0 0 64 64" width="256px" height="256px"><radialGradient id="xYJiZWsjtrpGk_kzK5aJMa" cx="32.5" cy="31.5" r="30.516" gradientUnits="userSpaceOnUse" spreadMethod="reflect"><stop offset="0" stop-color="#afeeff"/><stop offset=".193" stop-color="#bbf1ff"/><stop offset=".703" stop-color="#d7f8ff"/><stop offset="1" stop-color="#e1faff"/></radialGradient><path fill="url(#xYJiZWsjtrpGk_kzK5aJMa)" d="M59,20h1.5c2.168,0,3.892-1.998,3.422-4.243C63.58,14.122,62.056,13,60.385,13L53,13 c-1.105,0-2-0.895-2-2c0-1.105,0.895-2,2-2h3.385c1.67,0,3.195-1.122,3.537-2.757C60.392,3.998,58.668,2,56.5,2H34.006H32.5h-24 C6.575,2,5,3.575,5,5.5S6.575,9,8.5,9H10c1.105,0,2,0.895,2,2c0,1.105-0.895,2-2,2l-5.385,0c-1.67,0-3.195,1.122-3.537,2.757 C0.608,18.002,2.332,20,4.5,20H18v12L4.615,32c-1.67,0-3.195,1.122-3.537,2.757C0.608,37.002,2.332,39,4.5,39H5c1.105,0,2,0.895,2,2 c0,1.105-0.895,2-2,2H4.5c-2.168,0-3.892,1.998-3.422,4.243C1.42,48.878,2.945,50,4.615,50H10c1.105,0,2,0.895,2,2 c0,1.105-0.895,2-2,2l-1.385,0c-1.67,0-3.195,1.122-3.537,2.757C4.608,59.002,6.332,61,8.5,61h22.494H32.5h23 c1.925,0,3.5-1.575,3.5-3.5S57.425,54,55.5,54H55c-1.105,0-2-0.895-2-2c0-1.105,0.895-2,2-2h4.385c1.67,0,3.195-1.122,3.537-2.757 C63.392,44.998,61.668,43,59.5,43H47V31h12.385c1.67,0,3.195-1.122,3.537-2.757C63.392,25.998,61.668,24,59.5,24H59 c-1.105,0-2-0.895-2-2C57,20.895,57.895,20,59,20z"/><linearGradient id="xYJiZWsjtrpGk_kzK5aJMb" x1="32" x2="32" y1="56" y2="6" gradientUnits="userSpaceOnUse" spreadMethod="reflect"><stop offset="0" stop-color="#ff634d"/><stop offset=".204" stop-color="#fe6464"/><stop offset=".521" stop-color="#fc6581"/><stop offset=".794" stop-color="#fa6694"/><stop offset=".989" stop-color="#fa669a"/><stop offset="1" stop-color="#fa669a"/></linearGradient><path fill="url(#xYJiZWsjtrpGk_kzK5aJMb)" d="M57,31c0,13.805-11.195,25-25,25S7,44.805,7,31S18.195,6,32,6S57,17.195,57,31z"/><path fill="#fff" d="M27,34.733c0-4.106-0.531-5.64-0.531-7.251c0-3.662,2.238-4.482,3.615-4.482 C32.5,23,34,24.708,34,26.717c0,2.924-3,3.29-3,3.29s0,1.027,0,2.828C31,34.733,31.729,37,35.105,37C40.523,37,41,29.613,41,27.534 C41,24.662,39.262,19,32.761,19c-8.671,0-9.928,7.461-9.928,9.542c0,0.89,0.01,2.642,0.179,3.314 c2.585,0.641,1.982,2.929,1.281,3.571c-1.017,0.945-5.266,1.069-5.266-7.697c0-8.39,7.425-12.729,13.966-12.729 C39.218,15,46,19.319,46,27.637C46,35.059,40.578,41,35,41c-3.348,0-5-3-5-3c0,5.236-4.392,12.869-5,14C25,52,27,42.313,27,34.733z"/></svg>